<svg width="164" height="166" viewBox="0 0 164 166" fill="none" xmlns="http://www.w3.org/2000/svg">
<rect width="164" height="166" fill="#FF0000"/>
<path fill-rule="evenodd" clip-rule="evenodd" d="M69.3004 70.455C63.6546 70.455 58.208 70.455 52.7653 70.455C52.5031 63.3685 56.3099 54.3468 64.5313 50.5095C69.3591 48.2563 74.4776 47.4664 79.686 47.2874C86.8262 47.0412 93.7482 48.1845 100.298 51.2416C106.211 54.0007 109.281 58.8 109.461 65.0811C109.775 76.0639 109.611 87.0601 109.682 98.0506C109.702 101.264 109.802 104.477 109.932 107.687C110.02 109.884 110.657 111.777 112.654 113.138C113.279 113.564 113.348 114.806 113.814 116.058C111.377 116.058 109.466 116.058 107.555 116.058C103.697 116.058 99.838 116.011 95.9814 116.085C94.7948 116.108 94.1628 115.695 93.9435 114.577C93.5506 112.57 93.1661 110.562 92.7233 108.269C92.1288 108.815 91.5872 109.3 91.0602 109.801C85.1565 115.408 78.2638 118.419 69.9903 118.09C61.0442 117.734 53.2605 112.596 51.362 105.108C48.0467 92.0308 52.6406 80.4719 68.1261 77.3076C73.8383 76.1406 79.6551 75.4889 85.4148 74.5465C86.5432 74.3617 87.6739 74.0229 88.7255 73.5733C90.9599 72.6179 92.409 71.0326 92.3546 68.4236C92.2982 65.6904 91.3258 63.5086 88.5954 62.5145C84.1698 60.9034 79.6528 60.768 75.1732 62.1707C72.1347 63.1223 70.6573 65.607 69.7891 68.5039C69.6066 69.1167 69.4772 69.7445 69.3004 70.455ZM92.5102 83.9942C88.2329 85.0045 84.3891 85.8782 80.5639 86.8282C77.9596 87.475 75.2913 88.0009 72.8138 88.988C69.0387 90.4915 67.2749 94.1489 67.8462 98.4508C68.345 102.206 70.6338 104.793 74.6166 105.22C77.0393 105.479 79.6489 105.21 82.0115 104.574C86.9613 103.24 90.7684 100.296 91.6744 94.9616C92.3029 91.2663 92.2689 87.4588 92.5102 83.9942Z" fill="white"/>
<path fill-rule="evenodd" clip-rule="evenodd" d="M120.988 18C120.988 23.6274 120.988 29.2008 120.988 34.9359C95.0526 34.9359 69.1058 34.9359 43 34.9359C43 29.4041 43 23.7825 43 18C68.8622 18 94.8102 18 120.988 18Z" fill="white"/>
<path fill-rule="evenodd" clip-rule="evenodd" d="M120.987 131.066C120.987 136.69 120.987 142.264 120.987 148C95.0546 148 69.1075 148 43.0005 148C43.0005 142.472 43.0005 136.85 43.0005 131.066C68.8592 131.066 94.8068 131.066 120.987 131.066Z" fill="white"/>
</svg>
